# xmcd
#
# Track frame offsets:
#	150
#	18968
#	35004
#	59118
#	80388
#	99472
#	117943
#	135297
#	158911
#	179441
#	202285
#
# Disc length: 2974 seconds
#
# Revision: 0
# Processed by: cddbd v1.5.1PL0 Copyright (c) Steve Scherf et al.
# Submitted via: dBpowerAMP V4.0
#
DISCID=960b9c0b
DTITLE=Koko Taylor - Royal Blue
DYEAR=2000
DGENRE=Blues
TTITLE0=Save your breath
TTITLE1=Hittin' on me
TTITLE2=Bring me some water (composed by Melissa Etheridge, w/ Kenny Wayne Shepherd)
TTITLE3=But on the other hand
TTITLE4=Don't Let me catch You (with your drawers down)
TTITLE5=Blues hotel (w/ B.B.King)
TTITLE6=Fuel to burn
TTITLE7=The man next door
TTITLE8=Old woman
TTITLE9=Ernestine (w/ Matthew Skoller on harmonica)
TTITLE10=Keep your booty out of my bed
EXTD=koko taylor royal blue
EXTT0=
EXTT1=
EXTT2=
EXTT3=
EXTT4=
EXTT5=
EXTT6=
EXTT7=
EXTT8=
EXTT9=
EXTT10=
PLAYORDER=
